<svg viewBox="0 0 500 415" xmlns="http://www.w3.org/2000/svg"><path d="M484.81 296.46c-7-12.52-8.61-22.51-8.26-30.61.23-5.33-1.47-14.78-7.12-17.74 0 0-21.82 25.2-13.55 36.77a11.28 11.28 0 012 7.42c-.41 5.05 1 11.13 4.23 16.92a34.57 34.57 0 005.65 7.52 25.74 25.74 0 006.59 4.9 11.25 11.25 0 015.31 5.55A22.47 22.47 0 00500 340.57V315c-5.13-4.07-10.32-9.88-15.19-18.54z" fill="#f1998e"/><path d="M481.15 293.88c-7-12.51-8.61-22.5-8.26-30.6a28.33 28.33 0 00-3.46-15.17c-21.6 1.67-25.48 22.63-17.21 34.2a11.26 11.26 0 012 7.42c-.41 5 1 11.13 4.23 16.92a34.57 34.57 0 005.65 7.52 25.74 25.74 0 006.59 4.9 11.25 11.25 0 015.31 5.55c3.73 8.75 13.88 15 24 13v-22.57c-6.26-4.05-12.81-10.41-18.85-21.17z" fill="#05a357"/><path d="M449 0c1.32 7.17 1.16 16.24-3.38 28.2-4.62 12.19-10.71 19.13-16.56 23.6a25.78 25.78 0 00-8.57 11.26c13.76 14.1 30.64 4.59 33.89-7.93a10.22 10.22 0 014-5.7 27.89 27.89 0 009.34-12.82 31.48 31.48 0 001.95-8.32 23.26 23.26 0 00-.43-7.46 10.31 10.31 0 01.78-6.94A20.47 20.47 0 00471.57 0z" fill="#f1998e"/><path d="M445.16 0c1.41 7.23 1.33 16.43-3.3 28.63s-10.68 19.13-16.53 23.61a25.75 25.75 0 00-8.57 11.25c13.76 14.1 30.64 4.59 33.89-7.92a10.21 10.21 0 014-5.71 27.81 27.81 0 009.35-12.8 31.42 31.42 0 002-8.32 23.2 23.2 0 00-.43-7.45 10.28 10.28 0 01.78-6.95A20.52 20.52 0 00467.74 0z" fill="#05a357"/><path d="M126 0h-16.53c-3.3 2.78-3.12 7.23-.1 10.14A6.76 6.76 0 00114 12c.45 0 .91.05 1.36.09a20.43 20.43 0 012.47.37 27.36 27.36 0 017.76 2.94c1.67.92 3.64 1 5.64-1.07 2.78-2.88 1.66-7.45-1.51-11.12A17.7 17.7 0 00126 0zm27.71 218.52a28.41 28.41 0 0115.55-.55c7.89 1.86 18 2.18 31.61-2.37s21.49-10.9 26.67-17.14a28.33 28.33 0 0112.75-8.92c14.89 15.74 3.69 33.88-10.2 36.9a11.22 11.22 0 00-6.45 4.18c-3.09 4-8.21 7.58-14.5 9.69a34.48 34.48 0 01-9.23 1.78 25.53 25.53 0 01-8.18-.79 11.2 11.2 0 00-7.66.55c-12.91 6-32.77-1.79-30.36-23.33z" fill="#f1998e"/><path d="M405.31 95l2.14 9.83c.27 1.26-2.31 4.85-5.77 8s-6.5 4.66-6.78 3.4l-2.13-9.82z" fill="#156a41"/><ellipse cx="399.04" cy="100.68" fill="#05a357" rx="8.56" ry="2.02" transform="rotate(-44.26 399.068 100.676)"/><path d="M2.36 378.11a16.29 16.29 0 004.46 13.19c7.52 7.28 14.44 3.24 14.52-3a6.74 6.74 0 00-1.81-4.71c-.3-.34-.58-.7-.86-1.05a22.26 22.26 0 01-1.43-2.06 27.62 27.62 0 01-3.17-7.67c-.47-1.85-1.75-3.34-4.64-3.38-4-.09-6.57 3.86-7.07 8.68z" fill="#f1998e"/><path d="M17.26 382.33c-.3-.34-.59-.69-.87-1-.51-.67-1-1.36-1.42-2.07a27.46 27.46 0 01-3.18-7.66c-.47-1.85-1.74-3.35-4.63-3.38-4-.06-6.57 3.89-7.07 8.72a16.29 16.29 0 004.46 13.19c7.51 7.27 14.44 3.23 14.52-3a6.81 6.81 0 00-1.81-4.8z" fill="#05a357"/><path d="M17.26 382.33c-.3-.34-.59-.69-.87-1-.51-.67-1-1.36-1.42-2.07 5.31 8.35-5.76 15.53-10.42 10.87 7.51 7.27 14.44 3.23 14.52-3a6.81 6.81 0 00-1.81-4.8z" fill="#156a41"/><path d="M163.83 237.2l9.81 6.5a22 22 0 0010.27-1.9 10.66 10.66 0 012.15-.72l-17.23-11.42zm12.06-18.2l-4.84 7.3 23.38 15.5a27.25 27.25 0 005.32.23 34.83 34.83 0 008.87-1.67l-32.15-21.31zm7.87.07l29.4 19.49a30.78 30.78 0 008.06-5.51l-24.55-16.27a64.67 64.67 0 01-12.91 2.29zm17.85-3.84L223.93 230a11.15 11.15 0 016-3.64 20.48 20.48 0 003.31-1L211.55 211a74.19 74.19 0 01-9.94 4.23zm13.85-6.49l21.83 14.48a23 23 0 006.48-6.55L223.08 203a50.77 50.77 0 01-7.62 5.74zm31.54-5.58l-14.53-9.63a30.33 30.33 0 00-5.13 4.88c-.45.54-.93 1.08-1.42 1.63l19.7 13.05a19.82 19.82 0 001.38-9.93z" fill="#c14f29"/><path d="M378.24 261.51c-15.24-14.11-37.78-18.23-63.94-13.76l82.7 54.82c-1.75-16.87-7.87-31.01-18.76-41.06z" fill="#f1998e"/><path d="M500 413v-10.84L391.09 330c-.56 3.12-1.23 6.3-2 9.52zm0-15.66V386.5l-107-70.92c-.25 3.29-.65 6.65-1.17 10.07zm-106.74-86.4L500 381.67v-10.84l-106.8-70.78q.3 5.29.06 10.89zM361.14 415h16.36l-15.21-10.08q-2.22 3.9-4.58 7.81zm23.63 0h16.37l-32.61-21.62q-2.05 4-4.27 8zm23.64 0h16.36l-50.48-33.47q-1.89 4.11-3.94 8.24zm23.64 0h16.36l-68.89-45.67q-1.68 4.21-3.56 8.49zm23.63 0h16.37l-87.91-58.27q-1.45 4.35-3.13 8.77zm23.64 0h16.37l-107.63-71.35q-1.19 4.5-2.63 9.11z" fill="#c14f29"/><path d="M374.07 254.46c-41.77-38.58-133.69 1.33-214.37 80.37-26 25.49-46.29 53.1-60.42 80.17h257c40.66-66.07 49.83-130.95 17.79-160.54z" fill="#fff"/><path d="M368.36 260.64C359.24 252.22 347 248 331.93 248v10c12.49 0 22.46 3.36 29.64 10s11.38 15.95 12.87 28.08c1.63 13.2-.13 28.92-5.24 46.7-6.7 23.38-18.6 48-34.67 72.23h11.92c14.83-23.3 25.9-46.92 32.37-69.47 10.99-38.36 7.28-68.54-10.46-84.9zm-54.22-10.94c-42.63 7.72-98.16 41.79-148.54 91.14C142.43 363.54 123 389 108.83 415h11.45a311.17 311.17 0 0152.31-67c49-48 102.59-81.07 143.33-88.45a90.71 90.71 0 0116-1.55v-10a100.4 100.4 0 00-17.78 1.7zm-15.98 157.65c11.94-13 8.9-35.24-6.78-49.62s-37.8-15.48-49.8-2.72l-14.44 15.73a27.85 27.85 0 00-7 15.48 28.25 28.25 0 00-3.55 1h-.12c-.78.27-1.55.58-2.3.92a27.25 27.25 0 00-8.61 6.14l-14.44 15.74a27.19 27.19 0 00-3.58 4.95h103.6c3.47-3.74 6.86-7.4 7.02-7.62z" fill="#d4e2fc"/><circle cx="325.42" cy="313.35" fill="#d4e2fc" r="37.32"/><path d="M201.28 388.34l-14.44 15.74a27.31 27.31 0 00-6.09 10.92h48.34z" fill="#0f462d"/><path d="M251.08 391.06c-15.69-14.39-38.08-15.5-50-2.48-6.44 7-8.52 16.72-6.61 26.42h70.13a43 43 0 00-13.52-23.94z" fill="#066336"/><path d="M260.54 411.82a11.8 11.8 0 01-1.21-3.62 14.57 14.57 0 00-4.49-8.29 13.13 13.13 0 01-2.46-3.12 15.52 15.52 0 00-7.1-6.52 13.21 13.21 0 01-3.34-2.19 14.57 14.57 0 00-8.65-3.77 11.43 11.43 0 01-3.7-.89 12.21 12.21 0 00-8.84-.44 9.23 9.23 0 01-3.53.53 10 10 0 00-7.72 3 7.8 7.8 0 01-2.77 1.87 9.22 9.22 0 00-3.39 2.33 9.34 9.34 0 00-2 3.56 7.7 7.7 0 01-1.63 2.94 10 10 0 00-2.28 8 9.28 9.28 0 01-.22 3.54 11.41 11.41 0 00.2 6.33h64.36a13.27 13.27 0 00-1.23-3.26z" fill="#fff"/><path d="M227.07 397.16a14.66 14.66 0 00-11.76 4.5c-3.25 3.54-4.25 8.45-3.24 13.34h17.44z" fill="#ff6937"/><path d="M251.08 391.06c-12.37-11.34-28.89-14.42-41.18-8.85a34 34 0 000 3.91 10.06 10.06 0 017.34-2.61 9.15 9.15 0 003.52-.53 12.23 12.23 0 018.85.44 11.43 11.43 0 003.7.89 14.57 14.57 0 018.65 3.77 13.21 13.21 0 003.34 2.19 15.52 15.52 0 017.1 6.52 13.13 13.13 0 002.46 3.12 14.57 14.57 0 014.49 8.29 11.8 11.8 0 001.21 3.62 13.27 13.27 0 011.2 3.18h2.84a43 43 0 00-13.52-23.94z" fill="#0f462d"/><path d="M260.54 411.82a11.8 11.8 0 01-1.21-3.62 14.57 14.57 0 00-4.49-8.29 13.13 13.13 0 01-2.46-3.12 15.52 15.52 0 00-7.1-6.52 13.21 13.21 0 01-3.34-2.19 14.57 14.57 0 00-8.65-3.77 11.43 11.43 0 01-3.7-.89 12.23 12.23 0 00-8.85-.44 9.15 9.15 0 01-3.52.53 10.06 10.06 0 00-7.34 2.61 44.25 44.25 0 004.31 17 13.69 13.69 0 011.12-1.42 14.66 14.66 0 0111.76-4.5l2.39 17.47 7.39.37h24.89a13.27 13.27 0 00-1.2-3.22z" fill="#d4e2fc"/><path d="M227.07 397.16a14.66 14.66 0 00-11.76 4.5 13.69 13.69 0 00-1.12 1.42 49.7 49.7 0 007.93 11.92h7.39z" fill="#ab1300"/><path d="M293 402.34L237.33 349l-14.44 15.74c-11.94 13-8.9 35.23 6.79 49.62.22.21.46.41.69.61h51c4.09-4.4 11.63-12.63 11.63-12.63z" fill="#0f462d"/><ellipse cx="265.51" cy="375.32" fill="#066336" rx="31.98" ry="38.54" transform="rotate(-47.46 265.512 375.334)"/><path d="M239.39 351.37a9.08 9.08 0 00-2 3.55 8 8 0 01-1.64 2.95 10 10 0 00-2.28 7.95 9.28 9.28 0 01-.22 3.54 12.18 12.18 0 001.19 8.77 11.42 11.42 0 011.21 3.63 14.52 14.52 0 004.5 8.28 13.43 13.43 0 012.46 3.13 15.55 15.55 0 007.09 6.52 13.09 13.09 0 013.35 2.19 14.57 14.57 0 008.64 3.77 11.74 11.74 0 013.71.88 12.16 12.16 0 008.84.45 9.35 9.35 0 013.52-.54 10 10 0 007.68-2.91h.05a8.07 8.07 0 012.77-1.87 9.3 9.3 0 003.39-2.33 9.34 9.34 0 002-3.55 8 8 0 011.63-3 10 10 0 002.28-7.95 9.28 9.28 0 01.23-3.54 12.21 12.21 0 00-1.2-8.78 11.71 11.71 0 01-1.21-3.62 14.51 14.51 0 00-4.49-8.28 13.18 13.18 0 01-2.46-3.13 15.52 15.52 0 00-7.1-6.52 13.21 13.21 0 01-3.34-2.19 14.57 14.57 0 00-8.65-3.77 11.68 11.68 0 01-3.7-.88 12.16 12.16 0 00-8.84-.45 9.41 9.41 0 01-3.52.54 10 10 0 00-7.73 3 8 8 0 01-2.77 1.88 9.18 9.18 0 00-3.39 2.28z" fill="#fff"/><path d="M254.74 387.06c7.81 7.17 19 7.72 24.91 1.24a14.64 14.64 0 003.47-12.1l-35.23-1.75a21.29 21.29 0 006.85 12.61z" fill="#ff6937"/><path d="M251.36 362.35a14.68 14.68 0 00-3.47 12.1l17.62.87-2.39-17.47a14.69 14.69 0 00-11.76 4.5z" fill="#f1998e"/><path d="M276.28 363.59a21.23 21.23 0 00-13.16-5.74l2.39 17.47 17.61.88a21.27 21.27 0 00-6.84-12.61z" fill="#156a41"/><circle cx="487.66" cy="332.1" fill="#c14f29" r="1.49"/><path d="M489.27 135.23l-34.59 7.91a37.32 37.32 0 00-14 6.33c-4.88 3.65-16 12.33-21 16.22a18.63 18.63 0 00-4.13 4.4c-1.68 2.51-4.41 6.62-7.13 10.72l-.08.12-1.12 1.69-.05.07c-3.1 4.69-6 9-6.88 10.49a4.66 4.66 0 00-.32.53c-.79 2.74 3 5 8.44 5.4L298.31 286l55.42 50.75L468 219.63a17.75 17.75 0 002.13 4.66c1.54 2.38 12.26 18.84 12.26 18.84 5.38 7.84 18.65-5.15 14.39-14.86S490 213.16 490 213.16l.22-6c2.66 4.2 5.47 8.61 7.14 11.23a17.68 17.68 0 002.63 3.21v-94.81zM358.92 322.54a23.33 23.33 0 001.3-12.65c-2.8-16.16-21.63-27.69-42-25.77a44.93 44.93 0 00-10.66 2.32L420 202.5c1.25 1.82 3.68 3 7.31 3 4.47.06 5.7-1.44 9.41-2.26-.69 2.48-1.56 5.65-2.45 8.89h-.12l-.26 1-.3 1.12-3.09 11.6h.06c-.23.9-.37 1.45-.36 1.51.19 3.55 7.15 4.92 14.14 2.43z" fill="#f1998e"/><path d="M358.92 322.54a23.33 23.33 0 001.3-12.65c-2.8-16.15-21.63-27.69-42-25.77a44.93 44.93 0 00-10.66 2.32L361.72 246a57.08 57.08 0 00-8.44-3.36l-57.92 45.74 55.76 51.1L393 296.59a89.13 89.13 0 00-1.41-9.51z" fill="#ffd7d2"/><path d="M358.92 322.54a23.33 23.33 0 001.3-12.65c-2.8-16.15-21.63-27.69-42-25.77a44.93 44.93 0 00-10.66 2.32L361.72 246a57.08 57.08 0 00-8.44-3.36l-89.43 70.63a1.8 1.8 0 000 2.93 3.17 3.17 0 003.71.08L290 299.49a23.83 23.83 0 00-3.75 17.37c2.8 16.15 21.62 27.68 42 25.76a42.69 42.69 0 0016.77-5.06l.65 7.41L393 296.59a89.13 89.13 0 00-1.41-9.51z" fill="#d4e2fc"/><path d="M468.6 137.31q-1.56-5.92-3-11.88A35 35 0 00454.19 137c-3.52 5.8-11.45 19.48-15 25.61a23.59 23.59 0 00-2.55 6.52c-.75 3.3-2.6 11.25-2.6 11.25l-.88 12.16-3.55 7.9s-.32 1.77-.32 1.88c.2 5.79 11.63 6.89 20-1.08a22.89 22.89 0 005.77-9.26l4.86-14.34 13.45-22.2q-2.37-9.05-4.77-18.13z" fill="#993f21"/><path d="M461.79 159.8c1.08 7.16 3.93 23.8 5.21 31.24a24.89 24.89 0 002.33 7.07c1.52 3 2.53 5 3.75 7.4L479 213s2.36 8.82 2.4 8.89c5.31 9.87 18.72-6.74 14.55-19s-6.7-19.05-6.7-19.05l1.7-46z" fill="#993f21"/><path d="M490.6 147.38l-25.16 34.53c.6 3.57 1.16 6.8 1.56 9.13a24.58 24.58 0 001.52 5.28l21.3-27.59z" fill="#662a16"/><path d="M484.16 165.16c2.75 5.81 9.42 19.23 12.41 25.22a22.46 22.46 0 003.39 5v-51.7z" fill="#993f21"/><path d="M495.06 86.23l-57.79 56.14 59.9 25.81 2.79-2.71v-74.2z" fill="#662a16"/><path d="M324.32 373.1a2.64 2.64 0 01-.55-3.67l163-223.58-3.71 26L328 372.6a2.64 2.64 0 01-3.68.5z" fill="#870f00"/><path d="M362.6 316.15l-22.44 30.79a37.38 37.38 0 0022.44-30.79z" fill="#5a0a00"/><path d="M490.31 139.32l-.19 35.68a36.43 36.43 0 019.84 2.25V138.4zm-35.65-43.89a34.94 34.94 0 00-14.07 8.16c-4.92 4.67-16.17 15.78-21.21 20.77a23.35 23.35 0 00-4.17 5.6l-6.86 12.95-2.63 8.79-6 7.69c-.2.39-.31.63-.32.67-1.33 5.63 9.41 9.7 19.58 4.22a22.84 22.84 0 008-7.42l8.46-12.55 21.21-20.16 43.32-2.9V81.87z" fill="#c14f29"/><path d="M494.67 83.45l-25.28 40.06 6.82-.67 23.75-26.1V81.87z" fill="#993f21"/><path d="M262 316.63a2.64 2.64 0 010-3.71l195.43-195.87 9 9.25-200.69 190.41a2.64 2.64 0 01-3.74-.08z" fill="#870f00"/><path d="M490.12 175s-26.43-2.08-51-4.25-18.8-24.93.2-26.7l51-4.75z" fill="#c14f29"/><g fill="#fa9269"><path d="M208.72 240.44a34.77 34.77 0 01-8.81 1.65 26.71 26.71 0 01-5.42-.24l45 29.85c2.9-1.76 5.8-3.47 8.67-5.1zm291.14 164.18a2 2 0 01.1.21v-2.68l-2-1.35q.96 1.9 1.9 3.82zM397 302.57a102.16 102.16 0 01.53 11.2L500 381.67v-10.84zm-.48 26.2l72 47.74c1-.21 2-.41 3-.6a13.53 13.53 0 0113.57 5.59c.07.09.12.18.18.27a13.56 13.56 0 012.83 3q1.39 2 2.71 4c.06.1.12.2.19.3.85 1.32 1.68 2.64 2.49 4l6.43 4.26V386.5l-102.55-68c-.12 3.36-.37 6.78-.85 10.27zm12.2 75.59l-28.78-19.08q-1.81 4.14-3.83 8.31l30.64 20.31a13.51 13.51 0 011.97-9.54zM229.93 191.82l-25-16.59-5 7.54 23.7 15.71c1-1 2-2.06 2.81-3.09a32 32 0 013.49-3.57zm15.87 21.37l49.2 32.6q5.92-1.83 11.64-3.13l-59.41-39.39a19.81 19.81 0 01-1.43 9.92zM370.14 405.3l14.63 9.7h16.37l-26.82-17.78q-1.99 4.04-4.18 8.08zm-5.42 9.7h12.78l-9.29-6.16c-1.13 2.05-2.3 4.1-3.49 6.16zm44.85 0h-1.16zM275.16 253.14l-41.81-27.71a20.83 20.83 0 01-3.26 1 11.2 11.2 0 00-6 3.67l41.4 27.45q4.86-2.34 9.67-4.41zm-13.88 6.47l-39.93-26.47a30.85 30.85 0 01-8.08 5.49l38.87 25.77q4.61-2.52 9.14-4.79zm-23.87-36.31l42.22 28q5.3-2.13 10.48-3.9l-46.2-30.63a23.3 23.3 0 01-6.5 6.53zm185.96 170.28q4.47-2.59 9.06-4.84l-43-28.49q-1.4 4.39-3 8.86zm-3.83 2.28L385 373q-1.62 4.26-3.44 8.57l29.83 19.77a12.08 12.08 0 011-.75c2.35-1.68 4.74-3.24 7.15-4.73zm17.14-9.13q5-2.25 10.14-4.12L393.15 347c-.73 3-1.56 6.11-2.47 9.21zm-383.3 17.11l-4.99 7.53 5.47 3.63h16.36zm-7.21 10.88l-.19.28h.61zM208.55 209l-18.07-12-5 7.54 12.77 8.46c.5-.15 1-.3 1.5-.47a75.92 75.92 0 008.8-3.53zM60.6 392.95l-5 7.54L77.5 415h16.36zM75 371.18l-5 7.54 36.12 23.94c1.52-2.58 3.07-5.16 4.7-7.74zm-7.19 10.89l-5 7.53 36.95 24.5q2.08-4 4.36-8zm79.37-119.75l-5 7.54 51.75 34.3q3.7-3 7.42-5.92zm12.52 72.51l.94-.91-21.8-14.45v.08l-5.84 6.11-2-11.39-12.69-8.41-5 7.54 40.78 27q2.78-2.78 5.61-5.57zM140 273.21l-5 7.53 5.55 3.68 43 28.5q3.59-3.1 7.18-6.09zM451.6 381q5.64-1.83 11.48-3.24l-67.16-44.52c-.49 3.17-1.1 6.39-1.81 9.65zm-318.85-96.91l-5 7.54 45.64 30.26q3.48-3.17 7-6.23zm-43.29 65.32l-5 7.53 35.89 23.8q2.61-3.66 5.35-7.3zm74.14-18.35q3.36-3.24 6.75-6.37l-34.58-22.93L137.9 314zm-81.36 29.23l-5 7.54L113 391.55q2.45-3.76 5-7.52zm14.44-21.77l-5 7.54 36.47 24.18q2.76-3.57 5.66-7.1zm7.21-10.88l-5 7.53L136.38 360q2.91-3.47 6-6.9zm7.22-10.89l-5 7.54 38.89 25.8c2-2.25 4.12-4.49 6.24-6.71zm13.19 15.08l2.6-2.41 2.41 2.6-2.6 2.41zm73.39-145.71l-5 7.53 19.91 13.21a52.46 52.46 0 008-5.57zm-43.29 65.31l-5 7.54 55.32 36.67q3.84-2.94 7.68-5.75zm7.21-10.88l-5 7.53 59.26 39.29q4-2.87 8-5.57zm23.53 23.73a1.19 1.19 0 111.23-1.14 1.17 1.17 0 01-1.23 1.14zm-49.45 37.43l-10.15-6.73-5 7.53 9.52 6.31-.18-1.06zm57.44-87.28l-9.87-6.54-5 7.54 1.14.75a59 59 0 0013.73-1.75zm-6.97 26.72a9.69 9.69 0 00-2.09.7 22.11 22.11 0 01-10.36 1.9l53.75 35.63q4.15-2.76 8.3-5.35z"/><path d="M245.66 213.09l-1.81-1.2 2 1.3a19.81 19.81 0 001.41-9.92l-.17-.11a19.82 19.82 0 01-1.43 9.93zm-45.75 29a34.77 34.77 0 008.81-1.65l-.1-.07a34.83 34.83 0 01-8.87 1.67 27.25 27.25 0 01-5.32-.23l-6-4 6 4a26.71 26.71 0 005.48.28zm44-25.34l-.14-.08a23 23 0 01-6.48 6.55l-2.85-1.89 3 2a23.3 23.3 0 006.47-6.58zm-30.64 21.88a30.85 30.85 0 008.08-5.49l-.13-.09a30.78 30.78 0 01-8.06 5.51l-3.16-2.07zm16.66-12.24a11.15 11.15 0 00-6 3.64l.13.08a11.2 11.2 0 016-3.67 20.83 20.83 0 003.26-1l-3.45-2.29 3.34 2.21a20.48 20.48 0 01-3.28 1.03zm-45.86 15.46a9.69 9.69 0 012.09-.7l-.1-.07a10.66 10.66 0 00-2.15.72 22 22 0 01-10.27 1.9L168 240l5.72 3.8a22.11 22.11 0 0010.35-1.95zm249.1-75.07l4.1.15a23.62 23.62 0 011.92-4.3l6.67-11.5a3.61 3.61 0 00-2.64-1.32l-1.49-.05-13 12.28a9.4 9.4 0 004.44 4.74z"/><path d="M437.27 166.93l5.3.2a3.59 3.59 0 003.25-1.8 14.49 14.49 0 00.51-13.48 3.88 3.88 0 00-.47-.72l-6.67 11.5a23.62 23.62 0 00-1.92 4.3zm-3.45-17.47a9.43 9.43 0 00-4.16 3.41l-.14.21a9.69 9.69 0 00-1.47 6.08c4.53-3.52 9.39-7.26 12.31-9.45z"/><path d="M440.36 149.71c-2.92 2.19-7.78 5.93-12.31 9.45a9.61 9.61 0 00.73 2.88l13-12.28zm-10.84 3.37l.14-.21c-.05.07-.1.13-.14.21zm-21.17-10.17l-8.64 16.48 6.01-7.69z"/><path d="M409.51 150.19a6.06 6.06 0 00-1.16-7.28l-2.63 8.79-6 7.69c2.86 1.68 7.53-5.39 9.79-9.2zm36.82 1.66a14.49 14.49 0 01-.51 13.48 3.59 3.59 0 01-3.25 1.8l-9.4-.35a9.59 9.59 0 01.65-17.32l9.4.35a3.62 3.62 0 013.11 2.04z"/><path d="M399.71 159.39c2.87 1.68 7.54-5.36 9.8-9.2a6.06 6.06 0 00-1.16-7.28z"/></g><path d="M429.61 200.46c2.76.41 5.77-6.3 7.51-11a7.49 7.49 0 00-1.56-7.77 6.44 6.44 0 00-1.56-1.29zm51.79 21.41c3.1-2.09.4-8.51-1.5-12.18a8 8 0 00-5.17-4.14 3 3 0 00-1.65 0z" fill="#c14f29"/><circle cx="321.48" cy="312.49" fill="#066336" r="37.32"/><path d="M325.88 346.53a12.63 12.63 0 004.5-1.48 10.88 10.88 0 013.69-1.24 12.66 12.66 0 008.11-4.66 10.66 10.66 0 012.92-2.55 12.67 12.67 0 005.7-7.39 11 11 0 011.73-3.49 12.64 12.64 0 002.44-9 10.68 10.68 0 01.26-3.86 12.7 12.7 0 00-1.19-9.26 10.67 10.67 0 01-1.24-3.69 12.66 12.66 0 00-4.66-8.11 10.66 10.66 0 01-2.55-2.92 12.63 12.63 0 00-7.39-5.7 11 11 0 01-3.49-1.73 12.61 12.61 0 00-8.94-2.45h-.08a10.67 10.67 0 01-3.86-.26 12.72 12.72 0 00-4.75-.29 12.61 12.61 0 00-4.51 1.48 10.81 10.81 0 01-3.69 1.24 12.61 12.61 0 00-8.1 4.66 11 11 0 01-2.92 2.55 12.68 12.68 0 00-5.71 7.39 10.56 10.56 0 01-1.73 3.49 12.65 12.65 0 00-2.44 9 10.67 10.67 0 01-.26 3.86 12.7 12.7 0 001.19 9.26 10.67 10.67 0 011.24 3.69 12.7 12.7 0 004.66 8.11 10.8 10.8 0 012.55 2.92 12.7 12.7 0 007.39 5.7 11 11 0 013.49 1.73 12.6 12.6 0 009 2.44 10.67 10.67 0 013.86.26 12.76 12.76 0 004.78.3z" fill="#fff"/><path d="M303 314.87a18.59 18.59 0 0129.79-17.11l-22.7 29.45a18.55 18.55 0 01-7.09-12.34z" fill="#ff6937"/><path d="M323.86 330.92a18.52 18.52 0 01-13.73-3.71l11.35-14.72 14.72 11.35a18.58 18.58 0 01-12.34 7.08z" fill="#f1998e"/><path d="M339.91 310.1a18.56 18.56 0 01-3.71 13.74l-14.72-11.35 11.35-14.73a18.58 18.58 0 017.08 12.34zm-30.29-110.81l-17.99 2.54-5.92-6.07 17.99-2.54z" fill="#156a41"/><path d="M343.95 171.07l-13.47 11.15-1.4-16.01 13.47-11.15z" fill="#05a357"/><path d="M340.95 177.21l-8.29-4.65 19.16-9.37 8.29 4.66z" fill="#156a41"/><path d="M431 292.3a4 4 0 01-2.38.37 5.73 5.73 0 01-1.21-.25 5.75 5.75 0 01.37-1.18 4.07 4.07 0 011.49-1.9 4.68 4.68 0 013.66-.16 4.69 4.69 0 01-1.93 3.12z" fill="#333"/><path d="M473.31 306.33a4 4 0 012.05-1.26 6.51 6.51 0 011.22-.24 6.57 6.57 0 01.11 1.23 4.14 4.14 0 01-.64 2.33 4.72 4.72 0 01-3.32 1.56 4.67 4.67 0 01.58-3.62z" fill="#fff2d9"/><path d="M124.283 331.854l2.595-2.407 2.408 2.595-2.596 2.408z" fill="#c14f29"/><path d="M476.895 319.102l2.595-2.407 2.408 2.595-2.596 2.408z" fill="#993f21"/><circle cx="185.18" cy="263.1" fill="#993f21" r="1.19"/><path d="M415.38 403.8l-.11.08L432.05 415h16.36l-24.87-16.49a157.29 157.29 0 00-8.16 5.29zm72.75-19.06a13.52 13.52 0 00-13.57-5.59l-1.58.31 20.55 13.62c-1.7-2.81-3.53-5.59-5.4-8.34zM409.59 415h15.18l-12.45-8.26a13.5 13.5 0 00-2.73 8.26zm17.8-18.76L455.68 415h16.37l-35.54-23.56q-4.62 2.24-9.12 4.8zm70.52 4.57l-30.44-20.18q-5.91 1.37-11.59 3.16L500 413v-8.16c-.7-1.35-1.38-2.69-2.09-4.03zm-57.1-11.34L479.32 415h16.37L451 385.4c-3.43 1.23-6.83 2.6-10.19 4.07z" fill="#c14f29"/><path d="M485.12 381.5a13.53 13.53 0 00-13.57-5.59 149 149 0 00-59.17 24.65 13.51 13.51 0 00-5.59 13.57c0 .29.11.58.17.87h93v-6.79a152 152 0 00-14.84-26.71z" fill="#556268"/><path d="M482 383.67a9.76 9.76 0 00-9.77-4 145.43 145.43 0 00-57.7 24 9.78 9.78 0 00-4 9.77c.1.52.21 1 .31 1.56h87.84A147 147 0 00482 383.67z" fill="#394145"/><path d="M491.7 413.49a36.2 36.2 0 00-67.43 1.51h68c-.17-.51-.36-1-.57-1.51z" fill="#142328"/><path d="M457.35 392.19c-1.24.41-2.49.86-3.73 1.35-9.18 3.64-14.78 8.5-12.51 10.84l4.68 5.59 12.31-1.27c-.44-5.51-.7-11.01-.75-16.51z" fill="#ffc043"/><path d="M481 397.86c0-6.19-26.15 1.94-26.15 1.94a111 111 0 013.68 15.2h19.64c1.95-3.83 3.17-9.3 2.83-17.14z" fill="#ffe3ac"/><path d="M470.84 408.18l-12.51 5.07.22 1.75h4.6a16.06 16.06 0 007.69-6.82z" fill="#ffc043"/><path d="M441.11 404.38c1.82 1.88 9.24 1 16.58-1.88 2.37-.94 5.7-3.17 6.72-2l6.43 7.64c-6.22 7.38-20.45 7.77-22.12 5.48s-7.61-9.28-7.61-9.28z" fill="#ffcf70"/><path d="M376.49 0H250.74a81.36 81.36 0 10125.75 0z" fill="#f1998e"/><path d="M127.41 2c3.57 5.73-5.91 9.43-11.89 9.25a27.34 27.34 0 017.76 2.93c1.68.93 3.64 1 5.64-1.06 2.78-2.88 1.66-7.46-1.51-11.12z" fill="#156a41"/><path d="M374.4 0h-6.92a75.83 75.83 0 11-119 0h-6.91A81.36 81.36 0 10374.4 0z" fill="#545454"/><path d="M232.47 54.07A75.83 75.83 0 10367.48 0h-119a75.56 75.56 0 00-16.01 54.07z" fill="#333"/><path d="M353.11 0h-90.29a65.17 65.17 0 1090.29 0z" fill="#ffcf70"/><path d="M342.63 0H289.3l-32.13 38.72a27.05 27.05 0 00-5.08 25.17A58.37 58.37 0 10342.63 0z" fill="#ffe3ac"/><path d="M348.83 77.85l-15.3-9.8-.53-8.46 15.29 9.8z" fill="#156a41"/><path d="M303.64 63.26l-15.36 11.37-6 4.42a1.93 1.93 0 01-2.7-.4l-2.23-3-13.54-18.34a1.93 1.93 0 01.4-2.69l21.35-15.8a1.92 1.92 0 012.69.4L304 60.57a1.92 1.92 0 01-.36 2.69z" fill="#ffcf70"/><path d="M302.89 59l-33.25 6.17 7.73 10.43 2.23 3a1.93 1.93 0 002.7.4l6-4.42 15.36-11.37a1.92 1.92 0 00.4-2.69z" fill="#ffc043"/><rect fill="#fff" height="30.4" rx="1.92" transform="rotate(53.5 281.217 55.28)" width="21.28" x="270.57" y="40.07"/><path d="M269.61 65.14l4.57 6.18a1.92 1.92 0 002.69.41L291.43 61z" fill="#ffe3ac"/><path d="M330.64 9.54l-18.73-3.82L321.63 0h4.9l15.1 3.08zm7.76 46.93l-12.83-2.61 7.74-2.17 12.82 2.61z" fill="#05a357"/><rect fill="#ffcf70" height="19.21" rx="1.92" transform="rotate(148.38 322.265 18.276)" width="20.6" x="311.97" y="8.68"/><rect fill="#fff" height="19.21" rx="1.92" transform="rotate(148.38 324.895 16.655)" width="14.42" x="317.69" y="7.06"/><path d="M322.79 27l-3.58-5.81-7.2.1 5.51 9a1.94 1.94 0 002.65.63l5.26-3.24a1.93 1.93 0 01-2.64-.68z" fill="#ffc043"/><path d="M319.21 21.18l3.58 5.82a1.93 1.93 0 002.64.63l9-5.55a1.91 1.91 0 00.84-1.12z" fill="#ffe3ac"/><rect fill="#ffcf70" height="19.21" rx="1.92" transform="rotate(-36.43 272.848 21.503)" width="20.6" x="262.52" y="11.9"/><path d="M276.55 9.2a1.93 1.93 0 00-2.69-.4l-13.48 10a1.92 1.92 0 00-.41 2.69l5.43 7.36L279 12.47z" fill="#ffc043"/><rect fill="#fff" height="19.21" rx="1.92" transform="rotate(-36.43 270.361 23.328)" width="14.42" x="263.12" y="13.74"/><path d="M271.57 12.87a1.92 1.92 0 00-2.68-.4l-8.51 6.28a1.92 1.92 0 00-.41 2.69l5.43 7.36 9.49-11.44z" fill="#ffe3ac"/><path d="M333.07 49a1.91 1.91 0 00-2.64-.62l-14.27 8.82a1.91 1.91 0 00-.63 2.64l3.29 5.34L341 61.84z" fill="#ffcf70"/><path d="M341 61.84l-22.14 3.34L325.45 76a1.92 1.92 0 002.64.63l14.27-8.79a1.91 1.91 0 00.63-2.64z" fill="#ffc043"/><rect fill="#fff" height="22.76" rx="1.92" transform="rotate(148.38 335.397 58.704)" width="22.66" x="324.07" y="47.33"/><path d="M325.68 64.55l5 8.16a1.92 1.92 0 002.64.63l16-9.87a1.88 1.88 0 00.86-1.21z" fill="#ffe3ac"/><path d="M293.51 0h-12.82l-1.34.82a1.93 1.93 0 00-.63 2.64l6.22 10.17a1.93 1.93 0 002.65.64l9-5.55a1.93 1.93 0 00.63-2.64zm34.35 98.73l-7.59 2.47-12.13 4a1.92 1.92 0 01-2.42-1.23l-5.85-17.71a1.94 1.94 0 011.23-2.43l19.72-6.43a1.92 1.92 0 012.42 1.22l4.07 12.31 1.77 5.4a1.91 1.91 0 01-1.22 2.4z" fill="#ffcf70"/><path d="M294.32 67.56l5.59 13.24 9.4-14.74-1.07-2.54z" fill="#156a41"/><path d="M302.7 94.79L297.81 80a1.92 1.92 0 011.19-2.46l19.72-6.44a1.92 1.92 0 012.42 1.23l4.89 14.82a1.93 1.93 0 01-1.23 2.43L305.12 96a1.92 1.92 0 01-2.42-1.21z" fill="#fff"/><path d="M350.55 47.09l-10.07-11.21a1.92 1.92 0 01.15-2.71L353.19 22a1.92 1.92 0 012.71.15L366 33.32a1.93 1.93 0 01-.15 2.72l-12.56 11.2a1.92 1.92 0 01-2.74-.15z" fill="#ffcf70"/><path d="M345.13 41.06l-8.36-9.31a1.92 1.92 0 01.15-2.71l12.56-11.21a1.92 1.92 0 012.71.15l8.36 9.31a1.93 1.93 0 01-.15 2.71l-12.56 11.2a1.92 1.92 0 01-2.71-.14z" fill="#fff"/><path d="M351.9 37.59l-4.06 3.62a1.92 1.92 0 01-2.71-.15l-3.7-4.12 9.12 10.15a1.92 1.92 0 002.71.15l10-9z" fill="#ffc043"/><circle cx="470.32" cy="5.37" fill="#993f21" r="1.19"/><path d="M459.56 28.72a4.08 4.08 0 01-2.39-.32 6.12 6.12 0 01-1.1-.58 6.2 6.2 0 01.69-1 4.12 4.12 0 012-1.4 4.78 4.78 0 013.56.89 4.72 4.72 0 01-2.76 2.41z" fill="#333"/><circle cx="428.6" cy="59.65" fill="#c14f29" r="1.49"/><path d="M456.814 19.285l-.426-3.514 3.514-.427.426 3.515z" fill="#993f21"/><path d="M426.33 54.08a4.06 4.06 0 01-2.18-1 6.09 6.09 0 01-.86-.89 6.23 6.23 0 011-.76 4.08 4.08 0 012.3-.72 4.73 4.73 0 013.11 2 4.7 4.7 0 01-3.37 1.37z" fill="#fff2d9"/><path d="M345.13 41.06a1.92 1.92 0 002.71.15l4.06-3.62-10.47-.65z" fill="#ffe3ac"/><path d="M298.92 34.4l1.43 3.3a30.76 30.76 0 01-6.58 3.8 31.12 31.12 0 01-7.28 2.2l-1.43-3.3-4.77 2.07 2.85 6.59c1 2.26 7 1.83 13.48-1s10.91-6.9 9.93-9.16l-2.85-6.59z" fill="#156a41"/><path d="M300.35 37.7c2.57-2 3.93-4 3.35-5.36-1-2.26-7-1.83-13.48 1s-10.91 6.89-9.93 9.16c.59 1.35 3 1.73 6.2 1.23a33.09 33.09 0 0113.86-6z" fill="#05a357"/><path d="M307.6 90.07l.32 3.38a31 31 0 01-7.28-1.1 39.37 39.37 0 01-7.43-2.75l-.31-3.38-5.06-1.33.62 6.76c.22 2.33 6 5.66 12.81 7.46s12.24 1.38 12-1l-.63-6.76z" fill="#156a41"/><path d="M307.92 93.45c3 0 4.88-.66 4.75-2-.22-2.32-5.95-5.66-12.81-7.46s-12.24-1.37-12 1c.13 1.39 2.24 3.14 5.37 4.71a31 31 0 017.28 1.11 39.12 39.12 0 017.41 2.64z" fill="#05a357"/><path d="M310.3 26.42l1.88 2.32a11.91 11.91 0 002-3.67 19.35 19.35 0 001.11-4.8L313.44 18l1.09-3 3.77 4.64c1.3 1.59 1.16 6.08-.31 10s-3.71 5.86-5 4.26l-3.78-4.63z" fill="#156a41"/><path d="M312.18 28.74c-1.08 1.24-2.19 1.55-3 .6-1.29-1.6-1.15-6.09.31-10s3.71-5.85 5-4.26c.77 1 1 2.94.8 5.23a12.16 12.16 0 00-2 3.67 19.94 19.94 0 00-1.11 4.76z" fill="#05a357"/><path d="M337.8 71.95l-8.37 14.92-11.23 1.04L326.57 73zm6.16-13.94l-8.82-3.54 17.79-11.78 8.82 3.54zm-83.78-19.96l1.12-9.43 6.15 5.17-1.13 9.43z" fill="#156a41"/><path d="M261.3 28.62l-.71 5.97 3.21-3.87z" fill="#0f462d"/><path d="M292.52 25.07L279.06 13.9l7.74-2.17 13.45 11.17zm36.18 31.66l-2.35 5c-.58 1.23-5.22.27-10.36-2.15s-8.82-5.4-8.24-6.62l2.35-5z" fill="#156a41"/><ellipse cx="319.4" cy="52.34" fill="#05a357" rx="2.48" ry="10.28" transform="rotate(-64.74 319.38 52.347)"/><path d="M336.59 10.86l6.27 7.85c.81 1 .09 5.38-1.62 9.74s-3.76 7.06-4.57 6.05l-6.27-7.86z" fill="#156a41"/><ellipse cx="333.5" cy="18.75" fill="#05a357" rx="8.56" ry="2.02" transform="rotate(-70.58 333.488 18.764)"/><path d="M272.68 56l-4.6 15.85-.13.45-9.77 2.41c-1.26.31-1.23-3.08.07-7.59.19-.64.39-1.27.61-1.88 1.27-3.66 3-6.57 4-6.84z" fill="#156a41"/><ellipse cx="270.12" cy="64.21" fill="#05a357" rx="8.58" ry="2.02" transform="rotate(-72 269.838 64.514)"/><path d="M304.6 0l-7.77 10.67 4.32 3.15c1.07.77 4.57-2.2 7.81-6.65a27.63 27.63 0 004-7.17z" fill="#156a41"/><path d="M264.06 38.62l1.66-17.41 6.15 5.17-1.66 17.41z" fill="#05a357"/><path d="M269.24 24.17l-3.52-2.96-.77 8.13z" fill="#156a41"/><path d="M265.71 72.55l-7.53 2.2c-1.26.31-1.23-3.08.07-7.59.19-.64.39-1.27.61-1.88 2.5 1.08 6.85 7.27 6.85 7.27z" fill="#0f462d"/><path d="M213.63 102.12c-8 1-18.13.33-31.2-5.59s-20.27-13-24.78-19.76a28.31 28.31 0 00-11.77-10.18c-16.42 14.14-7.13 33.32 6.38 37.75a11.22 11.22 0 016 4.81c2.66 4.31 7.38 8.39 13.43 11.12a34.73 34.73 0 009 2.72 25.49 25.49 0 008.22 0 11.26 11.26 0 017.56 1.33c12.24 7.24 33.4 1.11 31.43-22.9a141 141 0 00-14.27.7z" fill="#f1998e"/><path d="M227.89 101.46a28.39 28.39 0 00-15.42-2.14c-8 1.05-18.13.33-31.2-5.59S161 80.7 156.49 74a28.31 28.31 0 00-11.77-10.18c-16.42 14.14-7.13 33.32 6.38 37.75a11.22 11.22 0 016 4.81c2.66 4.31 7.39 8.39 13.43 11.12a34.73 34.73 0 009 2.72 25.49 25.49 0 008.22 0 11.26 11.26 0 017.56 1.33c12.24 7.24 32.79 1.57 32.59-20.1z" fill="#05a357"/><path d="M167.07 108.11a4.1 4.1 0 01.86 2.25 6 6 0 010 1.24 5.79 5.79 0 01-1.23-.12 4.08 4.08 0 01-2.17-1.07 4.71 4.71 0 01-.9-3.55 4.68 4.68 0 013.44 1.25zM159.3 85a4.16 4.16 0 012.41.09 6.31 6.31 0 011.14.48 6.41 6.41 0 01-.6 1.09 4.08 4.08 0 01-1.83 1.57 4.71 4.71 0 01-3.62-.55 4.69 4.69 0 012.5-2.68z" fill="#333"/><path d="M212.914 103l3.068-1.766 1.766 3.069-3.068 1.765z" fill="#c14f29"/><path d="M212.29 109.2a28.37 28.37 0 00-8.56-13c-6.09-5.35-12.21-13.41-16.38-27.14s-3.56-23.83-1.48-31.66a30 30 0 001-8.07 14.65 14.65 0 00-5.31-11c-21.45-3-25.59 20.11-20 33.19a11.26 11.26 0 01.33 7.67c-1.48 4.84-1.43 11.09.5 17.44a34.53 34.53 0 003.89 8.55 25.64 25.64 0 005.39 6.21 11.29 11.29 0 014 6.56c2.63 14 20.44 25.68 36.6 11.24z" fill="#f1998e"/><path d="M171.7 91.4a11.29 11.29 0 014 6.56c2.63 14 20.44 25.68 36.6 11.24a27.46 27.46 0 00-5.17-9.49c-7.07.12-15.53-1.3-25.85-6a67.11 67.11 0 01-15.55-9.53c.2.33.39.67.59 1a25.64 25.64 0 005.38 6.22z" fill="#156a41"/><path d="M208.12 105.71a28.3 28.3 0 00-8.56-13c-6.08-5.35-12.2-13.41-16.37-27.14s-3.57-23.83-1.48-31.66a28.4 28.4 0 00-.12-15.57c-21.45-3-29.75 16.62-24.16 29.7a11.25 11.25 0 01.33 7.67c-1.49 4.84-1.43 11.09.49 17.43a35 35 0 003.9 8.56 25.61 25.61 0 005.38 6.21 11.22 11.22 0 014 6.56c2.63 14 20.44 25.68 36.59 11.24z" fill="#06c167"/><path d="M172.38 78.28a4 4 0 01-1.35 2 5.87 5.87 0 01-1 .72 6.25 6.25 0 01-.61-1.08 4 4 0 01-.36-2.38 4.7 4.7 0 012.39-2.78 4.65 4.65 0 01.93 3.52zm-20.32 7.37a4.08 4.08 0 01.37 2.38 5.88 5.88 0 01-.26 1.21 5.75 5.75 0 01-1.18-.37 4.07 4.07 0 01-1.89-1.5 4.66 4.66 0 01-.15-3.66 4.71 4.71 0 013.11 1.94z" fill="#fff2d9"/><circle cx="178.38" cy="68.22" fill="#c14f29" r="1.49"/><circle cx="212.52" cy="114.09" fill="#993f21" r="1.19"/><path d="M172.15 36.11a4.12 4.12 0 01-2.08-1.22 7.12 7.12 0 01-.78-1 6.15 6.15 0 011-.68 4.11 4.11 0 012.36-.52 4.72 4.72 0 012.93 2.2 4.72 4.72 0 01-3.43 1.22zM192.8 97a4.1 4.1 0 01-2.41 0 6.25 6.25 0 01-1.16-.44 6.25 6.25 0 01.56-1.1 4.07 4.07 0 011.78-1.64 4.71 4.71 0 013.64.44A4.74 4.74 0 01192.8 97zm3.37 4.11a4.08 4.08 0 01-2.09-1.2 6.79 6.79 0 01-.79-1 6.3 6.3 0 011-.68 4.18 4.18 0 012.35-.55 4.74 4.74 0 013 2.18 4.64 4.64 0 01-3.47 1.25z" fill="#fff2d9"/><path d="M176.46 74.93a4.1 4.1 0 012.34-.57 6 6 0 011.23.14 6.28 6.28 0 01-.27 1.21 4 4 0 01-1.32 2 4.74 4.74 0 01-3.64.47 4.74 4.74 0 011.66-3.25z" fill="#333"/><path d="M246.62 159.56a4.09 4.09 0 011.25-2.06 6.29 6.29 0 011-.77 6.15 6.15 0 01.66 1 4.06 4.06 0 01.49 2.36 4.7 4.7 0 01-2.24 2.91 4.71 4.71 0 01-1.16-3.44zm15.87-7.31a4 4 0 01.44 2.37 5.88 5.88 0 01-.21 1.22 6.09 6.09 0 01-1.19-.34 4.08 4.08 0 01-1.95-1.43 4.72 4.72 0 01-.26-3.66 4.73 4.73 0 013.17 1.84z" fill="#fff2d9"/><path d="M151.96 171.81l8.51-15.27 7.11 14.41-8.51 15.27z" fill="#05a357"/><path d="M141.31 155.12l1.07 10c.13 1.29 3.72 3.89 8 5.79s7.65 2.38 7.51 1.09l-1.06-10z" fill="#156a41"/><ellipse cx="149.07" cy="158.57" fill="#05a357" rx="2.02" ry="8.57" transform="rotate(-64.08 149.061 158.565)"/><path d="M77.67 27.63C69.91 25.31 61 20.54 51.46 9.81A72.7 72.7 0 0144.06 0H16.92a20.83 20.83 0 003.81 4.64 11.21 11.21 0 013.5 6.84c.68 5 3.33 10.66 7.74 15.63a34.78 34.78 0 007.11 6.14 25.34 25.34 0 007.49 3.39 11.19 11.19 0 016.36 4.3c8.23 11.6 29.31 14.79 37.95-5.08a28.24 28.24 0 00-13.21-8.23z" fill="#f1998e"/><path d="M75.11 25.06C67.35 22.74 58.42 18 48.9 7.24A75.22 75.22 0 0143.19 0h-27a21.69 21.69 0 002 2.08 11.22 11.22 0 013.51 6.83c.67 5 3.33 10.67 7.73 15.63a34.62 34.62 0 007.12 6.15A25.67 25.67 0 0044 34.08a11.28 11.28 0 016.37 4.29C58.6 50 79.67 53.16 88.32 33.29a28.45 28.45 0 00-13.21-8.23z" fill="#06c167"/><path d="M92.8 75.38a4 4 0 01-2.38.37 6.6 6.6 0 01-1.22-.25 6.25 6.25 0 01.38-1.18 4 4 0 011.49-1.9 4.73 4.73 0 013.67-.15 4.69 4.69 0 01-1.94 3.11z" fill="#fff2d9"/><path d="M105.67 64.07a4 4 0 01-.53 2.35 6.54 6.54 0 01-.67 1 5.75 5.75 0 01-1-.78 4.12 4.12 0 01-1.22-2.08 4.74 4.74 0 011.2-3.47 4.71 4.71 0 012.22 2.98z" fill="#333"/><path d="M106.11 96.47a4 4 0 011.53 1.86 6.09 6.09 0 01.41 1.18 6 6 0 01-1.21.28 4.08 4.08 0 01-2.39-.32 4.71 4.71 0 01-2-3.08 4.7 4.7 0 013.66.08z" fill="#fff2d9"/><circle cx="477.79" cy="60.97" fill="#c14f29" r="1.49"/><path d="M468.785 63.53l2.486-2.52 2.52 2.486-2.485 2.52z" fill="#993f21"/><path d="M485.81 57.8a4.06 4.06 0 011.26 2.05 6.51 6.51 0 01.24 1.22 5.84 5.84 0 01-1.24.11 4.13 4.13 0 01-2.32-.64 4.7 4.7 0 01-1.55-3.33 4.71 4.71 0 013.61.59z" fill="#fff2d9"/><circle cx="202.93" cy="150.48" fill="#c14f29" r="1.49"/><path d="M193.918 153.035l2.486-2.52 2.52 2.485-2.485 2.52z" fill="#993f21"/><path d="M132.98 325.67l-3.1-17.91 5.87-6.11 3.11 17.9z" fill="#05a357"/><path d="M71.28 313.77a16.28 16.28 0 00-8.18-11.27c-9.34-4.71-14.75 1.21-13 7.23a6.78 6.78 0 003.13 3.95q.58.36 1.14.75a20.86 20.86 0 012 1.54 27.66 27.66 0 015.32 6.37c1 1.63 2.66 2.68 5.43 1.85 3.88-1.14 5.12-5.67 4.16-10.42z" fill="#f1998e"/><path d="M69.27 312.64a16.28 16.28 0 00-8.18-11.27c-9.34-4.71-14.75 1.21-13 7.23a6.79 6.79 0 003.13 4c.39.23.77.48 1.14.74a24.76 24.76 0 012 1.54c5.12 3.12 15.2 4.51 14.91-2.24z" fill="#06c167"/><path d="M69.27 312.64c.29 6.75-9.79 5.31-14.9 2.2a27.21 27.21 0 015.31 6.38c1 1.63 2.67 2.67 5.44 1.85 3.88-1.14 5.11-5.68 4.15-10.43z" fill="#05a357"/><path d="M125.25 121.68a16.24 16.24 0 00-6.66 12.22c-.25 10.46 7.42 12.81 12.09 8.6a6.82 6.82 0 002.23-4.52c0-.46.11-.9.18-1.35a20 20 0 01.55-2.44 27.42 27.42 0 013.47-7.54c1-1.6 1.27-3.55-.66-5.7-2.67-2.95-7.32-2.18-11.2.73z" fill="#f1998e"/><path d="M136.12 125.66a27.42 27.42 0 00-3.47 7.54 20 20 0 00-.55 2.44c-.07.45-.14.9-.18 1.35a6.82 6.82 0 01-2.23 4.52c-4.67 4.21-12.34 1.86-12.09-8.6a16.26 16.26 0 016.66-12.22c3.88-2.91 8.53-3.7 11.2-.73 1.94 2.15 1.71 4.1.66 5.7z" fill="#05a357"/><path d="M36.56 20.33a4.18 4.18 0 01-2.39-.3 6.12 6.12 0 01-1.1-.58 6 6 0 01.68-1 4.12 4.12 0 012-1.41 4.73 4.73 0 013.57.86 4.73 4.73 0 01-2.76 2.43z" fill="#333"/><circle cx="48.61" cy="18.64" fill="#c14f29" r="1.49"/><circle cx="88.25" cy="94.18" fill="#c14f29" r="1.49"/><path d="M68.862 40.516l.931-3.416 3.415.932-.93 3.415zm-29.507 297.05l2.41 2.594-2.594 2.41-2.41-2.594z" fill="#993f21"/><path d="M152.59 215.45a28.45 28.45 0 0115.56-.55c7.88 1.86 18 2.18 31.6-2.37s21.5-10.9 26.67-17.14a28.33 28.33 0 0112.75-8.92c14.89 15.74 3.69 33.88-10.2 36.9a11.25 11.25 0 00-6.45 4.18c-3.08 4-8.2 7.58-14.49 9.69a34.62 34.62 0 01-9.24 1.78 25.5 25.5 0 01-8.17-.79 11.22 11.22 0 00-7.67.55c-12.91 5.95-32.77-1.79-30.36-23.33z" fill="#05a357"/><path d="M129.69 141.51a6.82 6.82 0 002.23-4.52c0-.45.11-.9.18-1.35a20 20 0 01.55-2.44 25.31 25.31 0 01.82-2.41c-1.57 3.33-7.64 14.9-14.86 8.15 2.19 5.15 7.51 5.79 11.08 2.57z" fill="#156a41"/><path d="M21.15 352.43a4.12 4.12 0 01-1.71-1.7 5.89 5.89 0 01-.52-1.13 5.82 5.82 0 011.17-.4 4.07 4.07 0 012.41.07 4.76 4.76 0 012.3 2.86 4.71 4.71 0 01-3.65.3zm208.63-147.1a4.08 4.08 0 011.25-2.07 6.11 6.11 0 011-.76 5.8 5.8 0 01.67 1 4.15 4.15 0 01.49 2.37 4.78 4.78 0 01-2.24 2.9 4.67 4.67 0 01-1.17-3.44zm-62.45 18.29a4.06 4.06 0 01.93 2.23 5.88 5.88 0 01.05 1.24 6.53 6.53 0 01-1.24-.08 4.16 4.16 0 01-2.2-1 4.72 4.72 0 01-1-3.53 4.7 4.7 0 013.46 1.14z" fill="#fff2d9"/><path d="M176.78 233.31a4.06 4.06 0 01-2 1.29 6 6 0 01-1.21.25 5.6 5.6 0 01-.13-1.23 4 4 0 01.62-2.33 4.68 4.68 0 013.3-1.6 4.73 4.73 0 01-.58 3.62z" fill="#333"/><circle cx="178.95" cy="223.15" fill="#c14f29" r="1.49"/><path d="M192.416 228.846l2.486-2.52 2.52 2.485-2.485 2.52z" fill="#993f21"/><path d="M218.453 213.27l1.241-3.314 3.315 1.241-1.241 3.315z" fill="#c14f29"/><circle cx="484.53" cy="273.1" fill="#c14f29" r="1.49"/><circle cx="464.57" cy="303.24" fill="#993f21" r="1.49"/><path d="M434.08 412.77a25.52 25.52 0 00-1.71 2.23h11.13c-3.99-2.55-7.94-3.86-9.42-2.23z" fill="#ffc043"/><path d="M125.35 0h-19.42c-2 2.74-1.51 6.38 1.09 8.88a6.82 6.82 0 004.67 1.91c.45 0 .91 0 1.36.08a22.65 22.65 0 012.47.38c6 .18 15.46-3.52 11.89-9.25a16.28 16.28 0 00-2.06-2z" fill="#05a357"/><path d="M457.43 117.05l9.02 9.25 33.51-31.79V74.4z" fill="#142328"/><path d="M331.17 0c3 2.35 6.47 5.86 7.94 10.45l6.12-7.52a26 26 0 00-5-2.93z" fill="#ffe3ac"/><path d="M301.67 0c-.3.39-.61.79-.91 1.2-3.24 4.45-5 8.7-3.92 9.48s4.56-2.2 7.8-6.65a36.92 36.92 0 002.57-4z" fill="#05a357"/><path d="M280.69 0l-1.33.82a1.92 1.92 0 00-.64 2.64L282 8.81 289.3 0z" fill="#ffc043"/><path d="M298.47 0h-14.59a2.26 2.26 0 00.11.22l6.22 10.17a1.92 1.92 0 002.64.64l7.35-4.53a1.92 1.92 0 00.63-2.64z" fill="#fff"/></svg>